<svg width="40" height="40" viewBox="0 0 40 40" fill="none" xmlns="http://www.w3.org/2000/svg">
<path d="M26.8371 18.2847C27.979 18.2847 29.0719 18.4475 30.0996 18.7569V16.6562C30.0996 14.8649 28.6315 13.3993 26.8371 13.3993H25.2059V10.1423C25.2059 5.64777 21.552 2 17.0498 2C12.5476 2 8.89367 5.64777 8.89367 10.1423V13.3993H7.26245C5.4681 13.3993 4 14.8649 4 16.6562V32.9409C4 34.7322 5.4681 36.1978 7.26245 36.1978H17.4739C16.279 34.4897 15.5763 32.4872 15.4421 30.4081C15.308 28.3291 15.7475 26.2531 16.713 24.406C17.6784 22.559 19.1328 21.0117 20.9178 19.9324C22.7029 18.8531 24.7502 18.2832 26.8371 18.2847ZM11.993 10.1423C11.993 7.35766 14.2604 5.09409 17.0498 5.09409C19.8392 5.09409 22.1066 7.35766 22.1066 10.1423V13.3993H11.993V10.1423Z" fill="#31465A"/>
<path d="M27.3997 21.8008C22.9285 21.8008 19.2998 25.4293 19.2998 29.9003C19.2998 34.3712 22.9285 37.9997 27.3997 37.9997C31.8708 37.9997 35.4995 34.3712 35.4995 29.9003C35.4995 25.4293 31.8708 21.8008 27.3997 21.8008ZM27.3997 25.0406C28.7442 25.0406 29.8296 26.1259 29.8296 27.4704C29.8296 28.8149 28.7442 29.9003 27.3997 29.9003C26.0551 29.9003 24.9697 28.8149 24.9697 27.4704C24.9697 26.1259 26.0551 25.0406 27.3997 25.0406ZM27.3997 34.76C25.7311 34.76 24.2569 33.9176 23.3821 32.6217C24.5647 31.9413 25.9255 31.5202 27.3997 31.5202C28.8738 31.5202 30.2346 31.9413 31.4172 32.6217C30.5424 33.9176 29.0682 34.76 27.3997 34.76Z" fill="#31465A"/>
</svg>
