<svg width="78" height="78" viewBox="0 0 78 78" fill="none" xmlns="http://www.w3.org/2000/svg">
<path d="M23 28.7368C23 33.092 24.6857 37.2687 27.6863 40.3483C30.6869 43.4278 34.7565 45.1579 39 45.1579C43.2435 45.1579 47.3131 43.4278 50.3137 40.3483C53.3143 37.2687 55 33.092 55 28.7368" fill="#31465A"/>
<path d="M7 69.7892C7 60.7166 21.32 53.3682 39 53.3682C56.68 53.3682 71 60.7166 71 69.7892V77.9997H7V69.7892Z" fill="#31465A"/>
<path d="M35 2.05263C35 0.862105 35.8 0 37 0H41C42.24 0 43 0.862105 43 2.05263V14.3684H47V4.10526C47 4.10526 56 7.63579 56 19.5C56 19.5 58.8 20.0747 59 24.6316H19C19 20.0747 22 19.5 22 19.5C22 7.63579 31 4.10526 31 4.10526V14.3684H35V2.05263Z" fill="#B10207"/>
</svg>
