<svg width="114" height="32" viewBox="0 0 114 32" fill="none" xmlns="http://www.w3.org/2000/svg">
<path d="M0.60065 31V1.07792H6.92695V25.7841H19.7549V31H0.60065ZM50.276 16.039C50.276 19.3019 49.6575 22.0779 48.4205 24.3669C47.1932 26.6558 45.5179 28.4042 43.3945 29.612C41.2808 30.8101 38.9042 31.4091 36.2646 31.4091C33.6055 31.4091 31.2192 30.8052 29.1055 29.5974C26.9919 28.3896 25.3214 26.6412 24.0942 24.3523C22.8669 22.0633 22.2532 19.2922 22.2532 16.039C22.2532 12.776 22.8669 10 24.0942 7.71104C25.3214 5.42208 26.9919 3.67857 29.1055 2.48052C31.2192 1.27272 33.6055 0.668828 36.2646 0.668828C38.9042 0.668828 41.2808 1.27272 43.3945 2.48052C45.5179 3.67857 47.1932 5.42208 48.4205 7.71104C49.6575 10 50.276 12.776 50.276 16.039ZM43.862 16.039C43.862 13.9253 43.5455 12.1429 42.9123 10.6916C42.289 9.24026 41.4075 8.13961 40.2679 7.38961C39.1283 6.63961 37.7938 6.26461 36.2646 6.26461C34.7354 6.26461 33.401 6.63961 32.2614 7.38961C31.1218 8.13961 30.2354 9.24026 29.6023 10.6916C28.9789 12.1429 28.6672 13.9253 28.6672 16.039C28.6672 18.1526 28.9789 19.9351 29.6023 21.3864C30.2354 22.8377 31.1218 23.9383 32.2614 24.6883C33.401 25.4383 34.7354 25.8133 36.2646 25.8133C37.7938 25.8133 39.1283 25.4383 40.2679 24.6883C41.4075 23.9383 42.289 22.8377 42.9123 21.3864C43.5455 19.9351 43.862 18.1526 43.862 16.039ZM74.8032 10.75C74.5986 10.039 74.3113 9.41071 73.9412 8.86526C73.571 8.31006 73.1181 7.84253 72.5824 7.46266C72.0564 7.07305 71.4525 6.77597 70.7707 6.57143C70.0986 6.36688 69.3535 6.26461 68.5353 6.26461C67.0061 6.26461 65.6619 6.64448 64.5028 7.40422C63.3535 8.16396 62.4574 9.26948 61.8145 10.7208C61.1717 12.1623 60.8502 13.9253 60.8502 16.0097C60.8502 18.0942 61.1668 19.8669 61.7999 21.3279C62.433 22.789 63.3291 23.9042 64.4882 24.6737C65.6473 25.4334 67.0158 25.8133 68.5938 25.8133C70.0256 25.8133 71.248 25.5601 72.261 25.0536C73.2837 24.5373 74.0629 23.8117 74.5986 22.8766C75.1441 21.9416 75.4168 20.836 75.4168 19.5601L76.7025 19.75H68.9882V14.987H81.5093V18.7565C81.5093 21.3864 80.9541 23.6461 79.8438 25.5357C78.7334 27.4156 77.2041 28.8669 75.2561 29.8896C73.308 30.9026 71.0775 31.4091 68.5645 31.4091C65.7593 31.4091 63.2951 30.7906 61.1717 29.5536C59.0483 28.3068 57.3925 26.539 56.2041 24.25C55.0256 21.9513 54.4363 19.224 54.4363 16.0682C54.4363 13.6429 54.7869 11.4805 55.4882 9.58117C56.1993 7.67208 57.1928 6.05519 58.4688 4.73052C59.7447 3.40584 61.2301 2.39772 62.9249 1.70617C64.6197 1.01461 66.4558 0.668828 68.433 0.668828C70.1278 0.668828 71.7058 0.917205 73.1668 1.41396C74.6278 1.90097 75.9233 2.59253 77.0532 3.48863C78.1928 4.38474 79.123 5.4513 79.8438 6.68831C80.5645 7.91558 81.0272 9.26948 81.2317 10.75H74.8032ZM113.758 16.039C113.758 19.3019 113.14 22.0779 111.903 24.3669C110.675 26.6558 109 28.4042 106.877 29.612C104.763 30.8101 102.386 31.4091 99.7468 31.4091C97.0877 31.4091 94.7013 30.8052 92.5877 29.5974C90.474 28.3896 88.8036 26.6412 87.5763 24.3523C86.349 22.0633 85.7354 19.2922 85.7354 16.039C85.7354 12.776 86.349 10 87.5763 7.71104C88.8036 5.42208 90.474 3.67857 92.5877 2.48052C94.7013 1.27272 97.0877 0.668828 99.7468 0.668828C102.386 0.668828 104.763 1.27272 106.877 2.48052C109 3.67857 110.675 5.42208 111.903 7.71104C113.14 10 113.758 12.776 113.758 16.039ZM107.344 16.039C107.344 13.9253 107.028 12.1429 106.394 10.6916C105.771 9.24026 104.89 8.13961 103.75 7.38961C102.61 6.63961 101.276 6.26461 99.7468 6.26461C98.2175 6.26461 96.8831 6.63961 95.7435 7.38961C94.6039 8.13961 93.7175 9.24026 93.0844 10.6916C92.461 12.1429 92.1494 13.9253 92.1494 16.039C92.1494 18.1526 92.461 19.9351 93.0844 21.3864C93.7175 22.8377 94.6039 23.9383 95.7435 24.6883C96.8831 25.4383 98.2175 25.8133 99.7468 25.8133C101.276 25.8133 102.61 25.4383 103.75 24.6883C104.89 23.9383 105.771 22.8377 106.394 21.3864C107.028 19.9351 107.344 18.1526 107.344 16.039Z" fill="black"/>
</svg>
