<svg width="40" height="40" viewBox="0 0 40 40" fill="none" xmlns="http://www.w3.org/2000/svg">
<path d="M13.3332 18.333C12.8609 18.333 12.4648 18.173 12.1448 17.853C11.8248 17.533 11.6654 17.1375 11.6665 16.6663C11.6665 16.1941 11.8265 15.798 12.1465 15.478C12.4665 15.158 12.8621 14.9986 13.3332 14.9997C13.8054 14.9997 14.2015 15.1597 14.5215 15.4797C14.8415 15.7997 15.0009 16.1952 14.9998 16.6663C14.9998 17.1386 14.8398 17.5347 14.5198 17.8547C14.1998 18.1747 13.8043 18.3341 13.3332 18.333ZM24.9998 14.9997H19.9998C19.5276 14.9997 19.1315 14.8397 18.8115 14.5197C18.4915 14.1997 18.3321 13.8041 18.3332 13.333C18.3332 12.8608 18.4932 12.4647 18.8132 12.1447C19.1332 11.8247 19.5287 11.6652 19.9998 11.6663H24.9998C25.4721 11.6663 25.8682 11.8263 26.1882 12.1463C26.5082 12.4663 26.6676 12.8619 26.6665 13.333C26.6665 13.8052 26.5065 14.2013 26.1865 14.5213C25.8665 14.8413 25.4709 15.0008 24.9998 14.9997ZM30.1248 34.9997C30.7637 34.9997 31.3815 34.7775 31.9782 34.333C32.5748 33.8886 32.9709 33.3469 33.1665 32.708C33.8609 30.3747 34.4304 28.3536 34.8748 26.6447C35.3193 24.9358 35.6737 23.4358 35.9382 22.1447C36.2015 20.8547 36.3887 19.7097 36.4998 18.7097C36.6109 17.7097 36.6665 16.7508 36.6665 15.833C36.6665 13.2775 35.7776 11.1108 33.9998 9.33301C32.2221 7.55523 30.0554 6.66634 27.4998 6.66634H19.1665C18.4165 5.66634 17.4648 4.86079 16.3115 4.24967C15.1582 3.63856 13.8876 3.33301 12.4998 3.33301C11.8054 3.33301 11.2148 3.57634 10.7282 4.06301C10.2415 4.54967 9.99873 5.13967 9.99984 5.83301C9.99984 5.99967 10.0209 6.16634 10.0632 6.33301C10.1054 6.49967 10.1537 6.65245 10.2082 6.79134C10.3193 7.0969 10.4237 7.40245 10.5215 7.70801C10.6193 8.01356 10.6954 8.3469 10.7498 8.70801L6.95817 12.4997H4.99984C4.52761 12.4997 4.1315 12.6597 3.8115 12.9797C3.4915 13.2997 3.33206 13.6952 3.33317 14.1663V22.9163C3.33317 23.2775 3.43761 23.5969 3.6465 23.8747C3.85539 24.1525 4.13984 24.3608 4.49984 24.4997L8.04151 25.6663L10.1248 32.6247C10.3471 33.3469 10.7498 33.9236 11.3332 34.3547C11.9165 34.7858 12.5832 35.0008 13.3332 34.9997H16.6665C17.5832 34.9997 18.3682 34.673 19.0215 34.0197C19.6748 33.3663 20.0009 32.5819 19.9998 31.6663H23.3332C23.3332 32.583 23.6598 33.368 24.3132 34.0213C24.9665 34.6747 25.7509 35.0008 26.6665 34.9997H30.1248Z" fill="#31465A"/>
</svg>
