<svg width="40" height="40" viewBox="0 0 40 40" fill="none" xmlns="http://www.w3.org/2000/svg">
<path d="M19.9998 20.0003C18.1665 20.0003 16.5971 19.3475 15.2915 18.042C13.9859 16.7364 13.3332 15.167 13.3332 13.3337C13.3332 11.5003 13.9859 9.93088 15.2915 8.62533C16.5971 7.31977 18.1665 6.66699 19.9998 6.66699C21.8332 6.66699 23.4026 7.31977 24.7082 8.62533C26.0137 9.93088 26.6665 11.5003 26.6665 13.3337C26.6665 15.167 26.0137 16.7364 24.7082 18.042C23.4026 19.3475 21.8332 20.0003 19.9998 20.0003ZM6.6665 33.3337V28.667C6.6665 27.7225 6.90984 26.8542 7.3965 26.062C7.88317 25.2698 8.52873 24.6659 9.33317 24.2503C11.0554 23.3892 12.8054 22.7431 14.5832 22.312C16.3609 21.8809 18.1665 21.6659 19.9998 21.667C21.8332 21.667 23.6387 21.8825 25.4165 22.3137C27.1943 22.7448 28.9443 23.3903 30.6665 24.2503C31.4721 24.667 32.1182 25.2714 32.6048 26.0637C33.0915 26.8559 33.3343 27.7237 33.3332 28.667V33.3337H6.6665Z" fill="#31465A"/>
</svg>
