<svg width="40" height="40" viewBox="0 0 40 40" fill="none" xmlns="http://www.w3.org/2000/svg">
<path d="M30.0002 33.3333L27.6668 31L30.2918 28.3333H23.3335V25H30.2918L27.6668 22.3333L30.0002 20L36.6668 26.6667L30.0002 33.3333ZM6.66683 28.3333C5.75016 28.3333 4.96572 28.0072 4.3135 27.355C3.66016 26.7017 3.3335 25.9167 3.3335 25V8.33333C3.3335 7.41667 3.66016 6.63167 4.3135 5.97833C4.96572 5.32611 5.75016 5 6.66683 5H28.3335C29.2502 5 30.0352 5.32611 30.6885 5.97833C31.3407 6.63167 31.6668 7.41667 31.6668 8.33333V16.8333C31.3891 16.7778 31.1113 16.7361 30.8335 16.7083C30.5557 16.6806 30.2779 16.6667 30.0002 16.6667C29.7224 16.6667 29.4446 16.6733 29.1668 16.6867C28.8891 16.7011 28.6113 16.7361 28.3335 16.7917V10.6667L17.3335 18.3333L6.66683 10.7083V25H20.1252C20.0696 25.2778 20.0346 25.5556 20.0202 25.8333C20.0068 26.1111 20.0002 26.3889 20.0002 26.6667C20.0002 26.9444 20.0141 27.2222 20.0418 27.5C20.0696 27.7778 20.1113 28.0556 20.1668 28.3333H6.66683ZM9.0835 8.33333L17.3335 14.25L25.8335 8.33333H9.0835Z" fill="#31465A"/>
</svg>
