<svg width="40" height="40" viewBox="0 0 40 40" fill="none" xmlns="http://www.w3.org/2000/svg">
<path d="M12.3977 28.4C10.8581 28.4 9.61246 29.66 9.61246 31.2C9.61246 32.74 10.8581 34 12.3977 34C13.9373 34 15.1969 32.74 15.1969 31.2C15.1969 29.66 13.9373 28.4 12.3977 28.4ZM4 7.4C4 8.17 4.62983 8.8 5.39961 8.8H6.79923L11.8378 19.426L9.94836 22.842C8.92664 24.718 10.2703 27 12.3977 27H27.7934C28.5632 27 29.1931 26.37 29.1931 25.6C29.1931 24.83 28.5632 24.2 27.7934 24.2H12.3977L13.9373 21.4H24.3644C25.4141 21.4 26.3378 20.826 26.8137 19.958L31.8243 10.872C31.9423 10.6598 32.0028 10.4205 31.9999 10.1777C31.997 9.9349 31.9308 9.69708 31.8077 9.48777C31.6847 9.27845 31.5092 9.10489 31.2986 8.98427C31.0879 8.86364 30.8494 8.80012 30.6067 8.8H9.89238L8.95464 6.798C8.84215 6.55903 8.66393 6.35706 8.44085 6.21573C8.21776 6.07441 7.95904 5.99958 7.69498 6H5.39961C4.62983 6 4 6.63 4 7.4ZM26.3938 28.4C24.8543 28.4 23.6086 29.66 23.6086 31.2C23.6086 32.74 24.8543 34 26.3938 34C27.9334 34 29.1931 32.74 29.1931 31.2C29.1931 29.66 27.9334 28.4 26.3938 28.4Z" fill="#31465A"/>
</svg>
