<svg width="20" height="20" viewBox="0 0 20 20" fill="none" xmlns="http://www.w3.org/2000/svg">
<path d="M9.99984 1.66699C5.39984 1.66699 1.6665 5.40033 1.6665 10.0003C1.6665 14.6003 5.39984 18.3337 9.99984 18.3337C14.5998 18.3337 18.3332 14.6003 18.3332 10.0003C18.3332 5.40033 14.5998 1.66699 9.99984 1.66699ZM13.8665 7.33366C13.7415 8.65033 13.1998 11.8503 12.9248 13.3253C12.8082 13.9503 12.5748 14.1587 12.3582 14.1837C11.8748 14.2253 11.5082 13.867 11.0415 13.5587C10.3082 13.0753 9.8915 12.7753 9.18317 12.3087C8.35817 11.767 8.8915 11.467 9.3665 10.9837C9.4915 10.8587 11.6248 8.91699 11.6665 8.74199C11.6723 8.71549 11.6715 8.68797 11.6643 8.66183C11.657 8.63569 11.6435 8.61172 11.6248 8.59199C11.5748 8.55033 11.5082 8.56699 11.4498 8.57533C11.3748 8.59199 10.2082 9.36699 7.93317 10.9003C7.59984 11.1253 7.29984 11.242 7.03317 11.2337C6.73317 11.2253 6.1665 11.067 5.7415 10.9253C5.2165 10.7587 4.80817 10.667 4.8415 10.3753C4.85817 10.2253 5.0665 10.0753 5.45817 9.91699C7.8915 8.85866 9.50817 8.15866 10.3165 7.82533C12.6332 6.85866 13.1082 6.69199 13.4248 6.69199C13.4915 6.69199 13.6498 6.70866 13.7498 6.79199C13.8332 6.85866 13.8582 6.95033 13.8665 7.01699C13.8582 7.06699 13.8748 7.21699 13.8665 7.33366Z" fill="#31465A"/>
</svg>
