<svg width="20" height="20" viewBox="0 0 20 20" fill="none" xmlns="http://www.w3.org/2000/svg">
<path d="M12.5607 1.66699H7.44734C2.77734 1.66699 1.6665 2.77783 1.6665 7.43949V12.5528C1.6665 17.222 2.769 18.3337 7.439 18.3337H12.5523C17.2215 18.3337 18.3332 17.2312 18.3332 12.5612V7.44783C18.3332 2.77783 17.2307 1.66699 12.5607 1.66699ZM15.1215 13.5587H13.9057C13.4457 13.5587 13.3073 13.1862 12.4823 12.3612C11.7623 11.667 11.4582 11.5803 11.2757 11.5803C11.024 11.5803 10.9548 11.6495 10.9548 11.997V13.0903C10.9548 13.3862 10.859 13.5595 10.0865 13.5595C9.33679 13.5091 8.60977 13.2813 7.96534 12.8949C7.3209 12.5085 6.77748 11.9746 6.37984 11.337C5.43581 10.162 4.77896 8.78294 4.4615 7.30949C4.4615 7.12699 4.53067 6.96199 4.87817 6.96199H6.09317C6.40567 6.96199 6.51817 7.10116 6.64067 7.42199C7.23067 9.15866 8.23734 10.6687 8.64567 10.6687C8.80234 10.6687 8.87067 10.5995 8.87067 10.2087V8.42033C8.819 7.60449 8.38567 7.53533 8.38567 7.24032C8.39124 7.16252 8.42689 7.08994 8.48508 7.03797C8.54326 6.98601 8.6194 6.95876 8.69734 6.96199H10.6073C10.8682 6.96199 10.9548 7.09199 10.9548 7.40449V9.81783C10.9548 10.0787 11.0673 10.1653 11.1457 10.1653C11.3023 10.1653 11.4232 10.0787 11.7098 9.79199C12.3256 9.04112 12.8286 8.20456 13.2032 7.30866C13.2415 7.20105 13.3139 7.10891 13.4094 7.04632C13.505 6.98373 13.6184 6.95411 13.7323 6.96199H14.9482C15.3123 6.96199 15.3898 7.14449 15.3123 7.40449C14.8702 8.39485 14.3232 9.33495 13.6807 10.2087C13.5498 10.4087 13.4973 10.5128 13.6807 10.747C13.8015 10.9295 14.2273 11.2853 14.514 11.6237C14.9306 12.0392 15.2765 12.52 15.5382 13.047C15.6423 13.3853 15.4682 13.5587 15.1215 13.5587Z" fill="#31465A"/>
</svg>
